<svg xmlns="http://www.w3.org/2000/svg" width="64" height="64" viewBox="0 0 64 64" role="img" aria-label="Tarf Yazılım">
  <defs>
    <linearGradient id="bg" x1="0%" y1="0%" x2="100%" y2="100%">
      <stop offset="0%" stop-color="#f43f5e"/>
      <stop offset="100%" stop-color="#e11d48"/>
    </linearGradient>
    <linearGradient id="glow" x1="0%" y1="20%" x2="100%" y2="80%">
      <stop offset="0%" stop-color="rgba(255,255,255,0.25)"/>
      <stop offset="100%" stop-color="rgba(255,255,255,0)"/>
    </linearGradient>
  </defs>
  <rect x="4" y="4" width="56" height="56" rx="14" fill="url(#bg)"/>
  <rect x="4" y="4" width="56" height="56" rx="14" fill="url(#glow)"/>
  <path fill="#ffffff" d="M18 20c0-1.1.9-2 2-2h24c1.1 0 2 .9 2 2v6c0 1.1-.9 2-2 2h-10v16c0 1.1-.9 2-2 2h-6c-1.1 0-2-.9-2-2V28H20c-1.1 0-2-.9-2-2z"/>
</svg>
